<svg xmlns="http://www.w3.org/2000/svg" width="393.17" height="242.74" viewBox="0 0 393.17 242.74"><title>mug</title><path d="M608.39,632.8c-49.16.72-76.63-9.5-76.63-9.5-98.24-99.67-75.83-233.21-75.83-233.21H760.85S783.26,523.63,685,623.3c0,0-27.48,10.22-76.63,9.5Z" transform="translate(-453.72 -390.09)" fill="#ffa270"/><path d="M718.22,581.49a.67.67,0,0,0,.79,1c17.68-7,127.88-52.94,127.88-114.33s-71.8-54.5-83-53a1.73,1.73,0,0,0-1.5,1.68l-.62,26.58a1,1,0,0,0,1.3.94c9.46-3.42,66.12-22,66.12,23,0,47.9-71.22,76.48-90.35,77.88a2.38,2.38,0,0,0-2,1.36C734.18,552.15,723.76,573.82,718.22,581.49Z" transform="translate(-453.72 -390.09)" fill="#ffa270"/><circle cx="89.52" cy="225.78" r="4.62" fill="none" stroke="#fff" stroke-miterlimit="10"/><circle cx="123.5" cy="232.57" r="4.62" fill="none" stroke="#fff" stroke-miterlimit="10"/><circle cx="154.66" cy="233.79" r="4.62" fill="none" stroke="#fff" stroke-miterlimit="10"/><circle cx="219.8" cy="225.25" r="4.62" fill="none" stroke="#fff" stroke-miterlimit="10"/><circle cx="185.82" cy="232.05" r="4.62" fill="none" stroke="#fff" stroke-miterlimit="10"/></svg>